# xmcd
#
# Track frame offsets: 
#        150
#        20582
#        43125
#        57725
#        72207
#        99170
#        121932
#        141890
#        157575
#        185657
#        204807
#        230945
#        242465
#        256325
#
# Disc length: 3548 seconds
#
# Revision: 3
# Processed by: cddbd v1.5.2PL0 Copyright (c) Steve Scherf et al.
# Submitted via: ExactAudioCopyFreeDBPlugin 1.0
#
DISCID=be0dda0e
DTITLE=Tadeusz Nalepa - To Mój Blues vol.I 1979-1985 
DYEAR=1991
DGENRE=
TTITLE0=To Mój Blues
TTITLE1=Musisz walczyć, musisz wierzyć
TTITLE2=Nauczyłem się niewiary
TTITLE3=Zasady gry
TTITLE4=Na wysoką wchodzę górę
TTITLE5=Mój dom umiera
TTITLE6=Kim bez ciebie jestem
TTITLE7=Sen szaleńca
TTITLE8=Muszę dziś ciebie zabić
TTITLE9=Oni mnie wyręczą w tym
TTITLE10=Musisz kłamstwem karmić ich
TTITLE11=Kły wilczycy
TTITLE12=Pożegnalny blues
TTITLE13=Idzie Wenus
EXTD=
EXTT0=
EXTT1=
EXTT2=
EXTT3=
EXTT4=
EXTT5=
EXTT6=
EXTT7=
EXTT8=
EXTT9=
EXTT10=
EXTT11=
EXTT12=
EXTT13=
PLAYORDER=
